<svg xmlns="http://www.w3.org/2000/svg" xmlns:xlink="http://www.w3.org/1999/xlink" width="1366" zoomAndPan="magnify" viewBox="0 0 1024.5 2489.25" height="3319" preserveAspectRatio="xMidYMid meet" version="1.0"><defs><clipPath id="a4cf2b5df6"><path d="M 0 0.230469 L 1024 0.230469 L 1024 575.953125 L 0 575.953125 Z M 0 0.230469 " clip-rule="nonzero"/></clipPath><clipPath id="e3703dbceb"><path d="M 0 575.953125 L 1024 575.953125 L 1024 1171.910156 L 0 1171.910156 Z M 0 575.953125 " clip-rule="nonzero"/></clipPath><clipPath id="56da18097f"><path d="M 0 985.203125 L 1024 985.203125 L 1024 1171.910156 L 0 1171.910156 Z M 0 985.203125 " clip-rule="nonzero"/></clipPath><clipPath id="23ebf6d62c"><path d="M 0 1171.910156 L 1024 1171.910156 L 1024 1912.550781 L 0 1912.550781 Z M 0 1171.910156 " clip-rule="nonzero"/></clipPath><clipPath id="f024e9b1bc"><path d="M 0 1171.910156 L 1024 1171.910156 L 1024 1345.777344 L 0 1345.777344 Z M 0 1171.910156 " clip-rule="nonzero"/></clipPath><clipPath id="36c3dade96"><path d="M 0 1280.902344 L 1024 1280.902344 L 1024 1912.550781 L 0 1912.550781 Z M 0 1280.902344 " clip-rule="nonzero"/></clipPath><clipPath id="b180cc4006"><path d="M 0 0.902344 L 1024 0.902344 L 1024 632.550781 L 0 632.550781 Z M 0 0.902344 " clip-rule="nonzero"/></clipPath><clipPath id="363b836ea1"><rect x="0" width="1024" y="0" height="633"/></clipPath><clipPath id="e552c7ddb9"><path d="M 0 1912.550781 L 1024 1912.550781 L 1024 2488.269531 L 0 2488.269531 Z M 0 1912.550781 " clip-rule="nonzero"/></clipPath><clipPath id="2f0b698ca7"><path d="M 0 1912.550781 L 262 1912.550781 L 262 1958.800781 L 0 1958.800781 Z M 0 1912.550781 " clip-rule="nonzero"/></clipPath><clipPath id="075e4bf1a4"><path d="M 261.941406 1888.640625 L 261.941406 1941.269531 C 240.113281 1941.269531 240.113281 1958.800781 218.285156 1958.800781 C 196.449219 1958.800781 196.449219 1941.269531 174.621094 1941.269531 C 152.792969 1941.269531 152.792969 1958.800781 130.964844 1958.800781 C 109.136719 1958.800781 109.136719 1941.269531 87.308594 1941.269531 C 65.476562 1941.269531 65.476562 1958.800781 43.65625 1958.800781 C 21.828125 1958.800781 21.828125 1941.269531 0 1941.269531 L 0 1888.640625 C 21.828125 1888.640625 21.828125 1906.171875 43.65625 1906.171875 C 65.476562 1906.171875 65.476562 1888.640625 87.308594 1888.640625 C 109.136719 1888.640625 109.136719 1906.171875 130.964844 1906.171875 C 152.792969 1906.171875 152.792969 1888.640625 174.621094 1888.640625 C 196.449219 1888.640625 196.449219 1906.171875 218.285156 1906.171875 C 240.113281 1906.171875 240.113281 1888.640625 261.941406 1888.640625 Z M 261.941406 1888.640625 " clip-rule="nonzero"/></clipPath><clipPath id="d05439855a"><path d="M 0 0.550781 L 261.953125 0.550781 L 261.953125 46.800781 L 0 46.800781 Z M 0 0.550781 " clip-rule="nonzero"/></clipPath><clipPath id="701044b215"><path d="M 261.941406 -23.359375 L 261.941406 29.269531 C 240.113281 29.269531 240.113281 46.800781 218.285156 46.800781 C 196.449219 46.800781 196.449219 29.269531 174.621094 29.269531 C 152.792969 29.269531 152.792969 46.800781 130.964844 46.800781 C 109.136719 46.800781 109.136719 29.269531 87.308594 29.269531 C 65.476562 29.269531 65.476562 46.800781 43.65625 46.800781 C 21.828125 46.800781 21.828125 29.269531 0 29.269531 L 0 -23.359375 C 21.828125 -23.359375 21.828125 -5.828125 43.65625 -5.828125 C 65.476562 -5.828125 65.476562 -23.359375 87.308594 -23.359375 C 109.136719 -23.359375 109.136719 -5.828125 130.964844 -5.828125 C 152.792969 -5.828125 152.792969 -23.359375 174.621094 -23.359375 C 196.449219 -23.359375 196.449219 -5.828125 218.285156 -5.828125 C 240.113281 -5.828125 240.113281 -23.359375 261.941406 -23.359375 Z M 261.941406 -23.359375 " clip-rule="nonzero"/></clipPath><clipPath id="43f3d871c2"><rect x="0" width="262" y="0" height="47"/></clipPath><clipPath id="da5662e0cd"><path d="M 256.535156 1912.550781 L 529.511719 1912.550781 L 529.511719 1958.800781 L 256.535156 1958.800781 Z M 256.535156 1912.550781 " clip-rule="nonzero"/></clipPath><clipPath id="1f4298a9c0"><path d="M 529.289062 1888.640625 L 529.289062 1941.269531 C 506.558594 1941.269531 506.558594 1958.800781 483.828125 1958.800781 C 461.09375 1958.800781 461.09375 1941.269531 438.363281 1941.269531 C 415.632812 1941.269531 415.632812 1958.800781 392.902344 1958.800781 C 370.175781 1958.800781 370.175781 1941.269531 347.445312 1941.269531 C 324.714844 1941.269531 324.714844 1958.800781 301.992188 1958.800781 C 279.265625 1958.800781 279.265625 1941.269531 256.535156 1941.269531 L 256.535156 1888.640625 C 279.265625 1888.640625 279.265625 1906.171875 301.992188 1906.171875 C 324.714844 1906.171875 324.714844 1888.640625 347.445312 1888.640625 C 370.175781 1888.640625 370.175781 1906.171875 392.902344 1906.171875 C 415.632812 1906.171875 415.632812 1888.640625 438.363281 1888.640625 C 461.09375 1888.640625 461.09375 1906.171875 483.828125 1906.171875 C 506.558594 1906.171875 506.558594 1888.640625 529.289062 1888.640625 Z M 529.289062 1888.640625 " clip-rule="nonzero"/></clipPath><clipPath id="d234baad5a"><path d="M 0.535156 0.550781 L 273.421875 0.550781 L 273.421875 46.800781 L 0.535156 46.800781 Z M 0.535156 0.550781 " clip-rule="nonzero"/></clipPath><clipPath id="fb96b9c8a2"><path d="M 273.289062 -23.359375 L 273.289062 29.269531 C 250.558594 29.269531 250.558594 46.800781 227.828125 46.800781 C 205.09375 46.800781 205.09375 29.269531 182.363281 29.269531 C 159.632812 29.269531 159.632812 46.800781 136.902344 46.800781 C 114.175781 46.800781 114.175781 29.269531 91.445312 29.269531 C 68.714844 29.269531 68.714844 46.800781 45.992188 46.800781 C 23.265625 46.800781 23.265625 29.269531 0.535156 29.269531 L 0.535156 -23.359375 C 23.265625 -23.359375 23.265625 -5.828125 45.992188 -5.828125 C 68.714844 -5.828125 68.714844 -23.359375 91.445312 -23.359375 C 114.175781 -23.359375 114.175781 -5.828125 136.902344 -5.828125 C 159.632812 -5.828125 159.632812 -23.359375 182.363281 -23.359375 C 205.09375 -23.359375 205.09375 -5.828125 227.828125 -5.828125 C 250.558594 -5.828125 250.558594 -23.359375 273.289062 -23.359375 Z M 273.289062 -23.359375 " clip-rule="nonzero"/></clipPath><clipPath id="927b025503"><rect x="0" width="274" y="0" height="47"/></clipPath><clipPath id="a66bbdfb73"><path d="M 523.882812 1912.550781 L 785.894531 1912.550781 L 785.894531 1958.800781 L 523.882812 1958.800781 Z M 523.882812 1912.550781 " clip-rule="nonzero"/></clipPath><clipPath id="73e4474ba1"><path d="M 785.824219 1888.640625 L 785.824219 1941.269531 C 763.996094 1941.269531 763.996094 1958.800781 742.167969 1958.800781 C 720.332031 1958.800781 720.332031 1941.269531 698.503906 1941.269531 C 676.675781 1941.269531 676.675781 1958.800781 654.84375 1958.800781 C 633.015625 1958.800781 633.015625 1941.269531 611.1875 1941.269531 C 589.359375 1941.269531 589.359375 1958.800781 567.539062 1958.800781 C 545.710938 1958.800781 545.710938 1941.269531 523.882812 1941.269531 L 523.882812 1888.640625 C 545.710938 1888.640625 545.710938 1906.171875 567.539062 1906.171875 C 589.359375 1906.171875 589.359375 1888.640625 611.1875 1888.640625 C 633.015625 1888.640625 633.015625 1906.171875 654.84375 1906.171875 C 676.675781 1906.171875 676.675781 1888.640625 698.503906 1888.640625 C 720.332031 1888.640625 720.332031 1906.171875 742.167969 1906.171875 C 763.996094 1906.171875 763.996094 1888.640625 785.824219 1888.640625 Z M 785.824219 1888.640625 " clip-rule="nonzero"/></clipPath><clipPath id="dafcc76be0"><path d="M 0.882812 0.550781 L 262.855469 0.550781 L 262.855469 46.800781 L 0.882812 46.800781 Z M 0.882812 0.550781 " clip-rule="nonzero"/></clipPath><clipPath id="940ffd29f7"><path d="M 262.824219 -23.359375 L 262.824219 29.269531 C 240.996094 29.269531 240.996094 46.800781 219.167969 46.800781 C 197.332031 46.800781 197.332031 29.269531 175.503906 29.269531 C 153.675781 29.269531 153.675781 46.800781 131.84375 46.800781 C 110.015625 46.800781 110.015625 29.269531 88.1875 29.269531 C 66.359375 29.269531 66.359375 46.800781 44.539062 46.800781 C 22.710938 46.800781 22.710938 29.269531 0.882812 29.269531 L 0.882812 -23.359375 C 22.710938 -23.359375 22.710938 -5.828125 44.539062 -5.828125 C 66.359375 -5.828125 66.359375 -23.359375 88.1875 -23.359375 C 110.015625 -23.359375 110.015625 -5.828125 131.84375 -5.828125 C 153.675781 -5.828125 153.675781 -23.359375 175.503906 -23.359375 C 197.332031 -23.359375 197.332031 -5.828125 219.167969 -5.828125 C 240.996094 -5.828125 240.996094 -23.359375 262.824219 -23.359375 Z M 262.824219 -23.359375 " clip-rule="nonzero"/></clipPath><clipPath id="51fa5dd321"><rect x="0" width="263" y="0" height="47"/></clipPath><clipPath id="1a3ef941e2"><path d="M 778.613281 1912.550781 L 1024 1912.550781 L 1024 1958.800781 L 778.613281 1958.800781 Z M 778.613281 1912.550781 " clip-rule="nonzero"/></clipPath><clipPath id="6c70f8373e"><path d="M 1047.765625 1888.640625 L 1047.765625 1941.269531 C 1025.335938 1941.269531 1025.335938 1958.800781 1002.90625 1958.800781 C 980.46875 1958.800781 980.46875 1941.269531 958.039062 1941.269531 C 935.609375 1941.269531 935.609375 1958.800781 913.183594 1958.800781 C 890.753906 1958.800781 890.753906 1941.269531 868.324219 1941.269531 C 845.894531 1941.269531 845.894531 1958.800781 823.472656 1958.800781 C 801.042969 1958.800781 801.042969 1941.269531 778.613281 1941.269531 L 778.613281 1888.640625 C 801.042969 1888.640625 801.042969 1906.171875 823.472656 1906.171875 C 845.894531 1906.171875 845.894531 1888.640625 868.324219 1888.640625 C 890.753906 1888.640625 890.753906 1906.171875 913.183594 1906.171875 C 935.609375 1906.171875 935.609375 1888.640625 958.039062 1888.640625 C 980.46875 1888.640625 980.46875 1906.171875 1002.90625 1906.171875 C 1025.335938 1906.171875 1025.335938 1888.640625 1047.765625 1888.640625 Z M 1047.765625 1888.640625 " clip-rule="nonzero"/></clipPath><clipPath id="bfd53f690c"><path d="M 0.613281 0.550781 L 246 0.550781 L 246 46.800781 L 0.613281 46.800781 Z M 0.613281 0.550781 " clip-rule="nonzero"/></clipPath><clipPath id="1c11b9032f"><path d="M 269.765625 -23.359375 L 269.765625 29.269531 C 247.335938 29.269531 247.335938 46.800781 224.90625 46.800781 C 202.46875 46.800781 202.46875 29.269531 180.039062 29.269531 C 157.609375 29.269531 157.609375 46.800781 135.183594 46.800781 C 112.753906 46.800781 112.753906 29.269531 90.324219 29.269531 C 67.894531 29.269531 67.894531 46.800781 45.472656 46.800781 C 23.042969 46.800781 23.042969 29.269531 0.613281 29.269531 L 0.613281 -23.359375 C 23.042969 -23.359375 23.042969 -5.828125 45.472656 -5.828125 C 67.894531 -5.828125 67.894531 -23.359375 90.324219 -23.359375 C 112.753906 -23.359375 112.753906 -5.828125 135.183594 -5.828125 C 157.609375 -5.828125 157.609375 -23.359375 180.039062 -23.359375 C 202.46875 -23.359375 202.46875 -5.828125 224.90625 -5.828125 C 247.335938 -5.828125 247.335938 -23.359375 269.765625 -23.359375 Z M 269.765625 -23.359375 " clip-rule="nonzero"/></clipPath><clipPath id="2b284d7c5d"><rect x="0" width="246" y="0" height="47"/></clipPath><clipPath id="efcbb9c661"><path d="M 0 1912.550781 L 1024 1912.550781 L 1024 1931.347656 L 0 1931.347656 Z M 0 1912.550781 " clip-rule="nonzero"/></clipPath><clipPath id="7a319bd77c"><path d="M 13.492188 1564.898438 L 1046.09375 1564.898438 C 1049.671875 1564.898438 1053.105469 1566.320312 1055.632812 1568.847656 C 1058.164062 1571.378906 1059.585938 1574.8125 1059.585938 1578.390625 L 1059.585938 1917.855469 C 1059.585938 1925.308594 1053.546875 1931.347656 1046.09375 1931.347656 L 13.492188 1931.347656 C 6.042969 1931.347656 0 1925.308594 0 1917.855469 L 0 1578.390625 C 0 1570.9375 6.042969 1564.898438 13.492188 1564.898438 Z M 13.492188 1564.898438 " clip-rule="nonzero"/></clipPath><clipPath id="4bc8619364"><path d="M 0 0.550781 L 1024 0.550781 L 1024 19.347656 L 0 19.347656 Z M 0 0.550781 " clip-rule="nonzero"/></clipPath><clipPath id="ff5ae4dc2f"><path d="M 13.492188 -347.101562 L 1046.09375 -347.101562 C 1049.671875 -347.101562 1053.105469 -345.679688 1055.632812 -343.152344 C 1058.164062 -340.621094 1059.585938 -337.1875 1059.585938 -333.609375 L 1059.585938 5.855469 C 1059.585938 13.308594 1053.546875 19.347656 1046.09375 19.347656 L 13.492188 19.347656 C 6.042969 19.347656 0 13.308594 0 5.855469 L 0 -333.609375 C 0 -341.0625 6.042969 -347.101562 13.492188 -347.101562 Z M 13.492188 -347.101562 " clip-rule="nonzero"/></clipPath><clipPath id="519286e81d"><rect x="0" width="1024" y="0" height="20"/></clipPath></defs><g clip-path="url(#a4cf2b5df6)"><path fill="#ffffff" d="M 0 0.230469 L 1024 0.230469 L 1024 575.953125 L 0 575.953125 Z M 0 0.230469 " fill-opacity="1" fill-rule="nonzero"/><path fill="#232136" d="M 0 0.230469 L 1024 0.230469 L 1024 575.953125 L 0 575.953125 Z M 0 0.230469 " fill-opacity="1" fill-rule="nonzero"/></g><g clip-path="url(#e3703dbceb)"><path fill="#ffffff" d="M 0 575.953125 L 1024 575.953125 L 1024 1171.910156 L 0 1171.910156 Z M 0 575.953125 " fill-opacity="1" fill-rule="nonzero"/><path fill="#232136" d="M 0 575.953125 L 1024 575.953125 L 1024 1171.910156 L 0 1171.910156 Z M 0 575.953125 " fill-opacity="1" fill-rule="nonzero"/></g><g clip-path="url(#56da18097f)"><path fill="#393552" d="M -47.140625 985.203125 L -17.292969 990.753906 C 12.550781 996.308594 72.242188 1007.414062 131.65625 1047.945312 C 191.207031 1088.339844 250.339844 1158.304688 309.890625 1187.871094 C 369.304688 1217.4375 428.996094 1206.890625 488.40625 1190.648438 C 547.960938 1174.40625 607.09375 1152.75 666.644531 1134.148438 C 726.058594 1115.6875 785.75 1100.417969 845.160156 1100.695312 C 904.714844 1100.835938 963.847656 1116.660156 1023.398438 1125.820312 C 1082.8125 1135.121094 1142.503906 1137.898438 1172.347656 1139.285156 L 1202.191406 1140.675781 L 1202.191406 1358.613281 L 1172.347656 1358.613281 C 1142.503906 1358.613281 1082.8125 1358.613281 1023.398438 1358.613281 C 963.847656 1358.613281 904.714844 1358.613281 845.160156 1358.613281 C 785.75 1358.613281 726.058594 1358.613281 666.644531 1358.613281 C 607.09375 1358.613281 547.960938 1358.613281 488.40625 1358.613281 C 428.996094 1358.613281 369.304688 1358.613281 309.890625 1358.613281 C 250.339844 1358.613281 191.207031 1358.613281 131.65625 1358.613281 C 72.242188 1358.613281 12.550781 1358.613281 -17.292969 1358.613281 L -47.140625 1358.613281 Z M -47.140625 985.203125 " fill-opacity="1" fill-rule="nonzero"/></g><g clip-path="url(#23ebf6d62c)"><path fill="#ffffff" d="M 0 1171.910156 L 1024 1171.910156 L 1024 1912.550781 L 0 1912.550781 Z M 0 1171.910156 " fill-opacity="1" fill-rule="nonzero"/><path fill="#232136" d="M 0 1171.910156 L 1024 1171.910156 L 1024 1912.550781 L 0 1912.550781 Z M 0 1171.910156 " fill-opacity="1" fill-rule="nonzero"/></g><g clip-path="url(#f024e9b1bc)"><path fill="#393552" d="M -5.953125 1000.195312 L 21.667969 1005.332031 C 49.285156 1010.472656 104.527344 1020.75 159.507812 1058.261719 C 214.621094 1095.644531 269.347656 1160.390625 324.457031 1187.753906 C 379.441406 1215.117188 434.679688 1205.351562 489.664062 1190.320312 C 544.773438 1175.292969 599.5 1155.25 654.613281 1138.035156 C 709.59375 1120.953125 764.835938 1106.820312 819.816406 1107.078125 C 874.929688 1107.207031 929.652344 1121.851562 984.765625 1130.328125 C 1039.75 1138.9375 1094.988281 1141.503906 1122.609375 1142.789062 L 1150.226562 1144.074219 L 1150.226562 1345.765625 L 1122.609375 1345.765625 C 1094.988281 1345.765625 1039.75 1345.765625 984.765625 1345.765625 C 929.652344 1345.765625 874.929688 1345.765625 819.816406 1345.765625 C 764.835938 1345.765625 709.59375 1345.765625 654.613281 1345.765625 C 599.5 1345.765625 544.773438 1345.765625 489.664062 1345.765625 C 434.679688 1345.765625 379.441406 1345.765625 324.457031 1345.765625 C 269.347656 1345.765625 214.621094 1345.765625 159.507812 1345.765625 C 104.527344 1345.765625 49.285156 1345.765625 21.667969 1345.765625 L -5.953125 1345.765625 Z M -5.953125 1000.195312 " fill-opacity="1" fill-rule="nonzero"/></g><g clip-path="url(#36c3dade96)"><g transform="matrix(1, 0, 0, 1, 0, 1280)"><g clip-path="url(#363b836ea1)"><g clip-path="url(#b180cc4006)"><path fill="#393552" d="M -45.953125 0.902344 L 1116.273438 0.902344 L 1116.273438 647.707031 L -45.953125 647.707031 Z M -45.953125 0.902344 " fill-opacity="1" fill-rule="nonzero"/></g></g></g></g><g clip-path="url(#e552c7ddb9)"><path fill="#ffffff" d="M 0 1912.550781 L 1024 1912.550781 L 1024 2488.269531 L 0 2488.269531 Z M 0 1912.550781 " fill-opacity="1" fill-rule="nonzero"/><path fill="#232136" d="M 0 1912.550781 L 1024 1912.550781 L 1024 2488.269531 L 0 2488.269531 Z M 0 1912.550781 " fill-opacity="1" fill-rule="nonzero"/></g><g clip-path="url(#2f0b698ca7)"><g clip-path="url(#075e4bf1a4)"><g transform="matrix(1, 0, 0, 1, 0, 1912)"><g clip-path="url(#43f3d871c2)"><g clip-path="url(#d05439855a)"><g clip-path="url(#701044b215)"><path fill="#393552" d="M 0 -23.359375 L 262.015625 -23.359375 L 262.015625 46.800781 L 0 46.800781 Z M 0 -23.359375 " fill-opacity="1" fill-rule="nonzero"/></g></g></g></g></g></g><g clip-path="url(#da5662e0cd)"><g clip-path="url(#1f4298a9c0)"><g transform="matrix(1, 0, 0, 1, 256, 1912)"><g clip-path="url(#927b025503)"><g clip-path="url(#d234baad5a)"><g clip-path="url(#fb96b9c8a2)"><path fill="#393552" d="M 0.535156 -23.359375 L 273.238281 -23.359375 L 273.238281 46.800781 L 0.535156 46.800781 Z M 0.535156 -23.359375 " fill-opacity="1" fill-rule="nonzero"/></g></g></g></g></g></g><g clip-path="url(#a66bbdfb73)"><g clip-path="url(#73e4474ba1)"><g transform="matrix(1, 0, 0, 1, 523, 1912)"><g clip-path="url(#51fa5dd321)"><g clip-path="url(#dafcc76be0)"><g clip-path="url(#940ffd29f7)"><path fill="#393552" d="M 0.882812 -23.359375 L 262.894531 -23.359375 L 262.894531 46.800781 L 0.882812 46.800781 Z M 0.882812 -23.359375 " fill-opacity="1" fill-rule="nonzero"/></g></g></g></g></g></g><g clip-path="url(#1a3ef941e2)"><g clip-path="url(#6c70f8373e)"><g transform="matrix(1, 0, 0, 1, 778, 1912)"><g clip-path="url(#2b284d7c5d)"><g clip-path="url(#bfd53f690c)"><g clip-path="url(#1c11b9032f)"><path fill="#393552" d="M 0.613281 -23.359375 L 269.753906 -23.359375 L 269.753906 46.800781 L 0.613281 46.800781 Z M 0.613281 -23.359375 " fill-opacity="1" fill-rule="nonzero"/></g></g></g></g></g></g><g clip-path="url(#efcbb9c661)"><g clip-path="url(#7a319bd77c)"><g transform="matrix(1, 0, 0, 1, 0, 1912)"><g clip-path="url(#519286e81d)"><g clip-path="url(#4bc8619364)"><g clip-path="url(#ff5ae4dc2f)"><path fill="#393552" d="M 0 -347.101562 L 1059.277344 -347.101562 L 1059.277344 19.347656 L 0 19.347656 Z M 0 -347.101562 " fill-opacity="1" fill-rule="nonzero"/></g></g></g></g></g></g></svg>