<svg xmlns="http://www.w3.org/2000/svg" xmlns:xlink="http://www.w3.org/1999/xlink" width="1366" zoomAndPan="magnify" viewBox="0 0 1024.5 2489.25" height="3319" preserveAspectRatio="xMidYMid meet" version="1.0"><defs><clipPath id="870db982e0"><path d="M 0 0.230469 L 1024 0.230469 L 1024 575.953125 L 0 575.953125 Z M 0 0.230469 " clip-rule="nonzero"/></clipPath><clipPath id="4b58f8d9d5"><path d="M 0 575.953125 L 1024 575.953125 L 1024 1171.910156 L 0 1171.910156 Z M 0 575.953125 " clip-rule="nonzero"/></clipPath><clipPath id="f839c38e0b"><path d="M 0 981.722656 L 1024 981.722656 L 1024 1171.910156 L 0 1171.910156 Z M 0 981.722656 " clip-rule="nonzero"/></clipPath><clipPath id="d53994125a"><path d="M 0 1171.910156 L 1024 1171.910156 L 1024 1912.550781 L 0 1912.550781 Z M 0 1171.910156 " clip-rule="nonzero"/></clipPath><clipPath id="c2fe0a73b5"><path d="M 0 1171.910156 L 1024 1171.910156 L 1024 1344.703125 L 0 1344.703125 Z M 0 1171.910156 " clip-rule="nonzero"/></clipPath><clipPath id="d30e5157b7"><path d="M 0 1280.902344 L 1024 1280.902344 L 1024 1912.550781 L 0 1912.550781 Z M 0 1280.902344 " clip-rule="nonzero"/></clipPath><clipPath id="8a52c82063"><path d="M 0 0.902344 L 1024 0.902344 L 1024 632.550781 L 0 632.550781 Z M 0 0.902344 " clip-rule="nonzero"/></clipPath><clipPath id="85703b4bc2"><rect x="0" width="1024" y="0" height="633"/></clipPath><clipPath id="ff870770f0"><path d="M 0 1912.550781 L 1024 1912.550781 L 1024 2488.269531 L 0 2488.269531 Z M 0 1912.550781 " clip-rule="nonzero"/></clipPath><clipPath id="018fcf7229"><path d="M 0 1912.550781 L 262 1912.550781 L 262 1958.800781 L 0 1958.800781 Z M 0 1912.550781 " clip-rule="nonzero"/></clipPath><clipPath id="f2c298d03e"><path d="M 261.941406 1888.640625 L 261.941406 1941.269531 C 240.113281 1941.269531 240.113281 1958.800781 218.285156 1958.800781 C 196.449219 1958.800781 196.449219 1941.269531 174.621094 1941.269531 C 152.792969 1941.269531 152.792969 1958.800781 130.964844 1958.800781 C 109.136719 1958.800781 109.136719 1941.269531 87.308594 1941.269531 C 65.476562 1941.269531 65.476562 1958.800781 43.65625 1958.800781 C 21.828125 1958.800781 21.828125 1941.269531 0 1941.269531 L 0 1888.640625 C 21.828125 1888.640625 21.828125 1906.171875 43.65625 1906.171875 C 65.476562 1906.171875 65.476562 1888.640625 87.308594 1888.640625 C 109.136719 1888.640625 109.136719 1906.171875 130.964844 1906.171875 C 152.792969 1906.171875 152.792969 1888.640625 174.621094 1888.640625 C 196.449219 1888.640625 196.449219 1906.171875 218.285156 1906.171875 C 240.113281 1906.171875 240.113281 1888.640625 261.941406 1888.640625 Z M 261.941406 1888.640625 " clip-rule="nonzero"/></clipPath><clipPath id="1fefed74c5"><path d="M 0 0.550781 L 261.953125 0.550781 L 261.953125 46.800781 L 0 46.800781 Z M 0 0.550781 " clip-rule="nonzero"/></clipPath><clipPath id="055e95653b"><path d="M 261.941406 -23.359375 L 261.941406 29.269531 C 240.113281 29.269531 240.113281 46.800781 218.285156 46.800781 C 196.449219 46.800781 196.449219 29.269531 174.621094 29.269531 C 152.792969 29.269531 152.792969 46.800781 130.964844 46.800781 C 109.136719 46.800781 109.136719 29.269531 87.308594 29.269531 C 65.476562 29.269531 65.476562 46.800781 43.65625 46.800781 C 21.828125 46.800781 21.828125 29.269531 0 29.269531 L 0 -23.359375 C 21.828125 -23.359375 21.828125 -5.828125 43.65625 -5.828125 C 65.476562 -5.828125 65.476562 -23.359375 87.308594 -23.359375 C 109.136719 -23.359375 109.136719 -5.828125 130.964844 -5.828125 C 152.792969 -5.828125 152.792969 -23.359375 174.621094 -23.359375 C 196.449219 -23.359375 196.449219 -5.828125 218.285156 -5.828125 C 240.113281 -5.828125 240.113281 -23.359375 261.941406 -23.359375 Z M 261.941406 -23.359375 " clip-rule="nonzero"/></clipPath><clipPath id="ab576d9fa8"><rect x="0" width="262" y="0" height="47"/></clipPath><clipPath id="8d3f48c3f3"><path d="M 256.535156 1912.550781 L 529.511719 1912.550781 L 529.511719 1958.800781 L 256.535156 1958.800781 Z M 256.535156 1912.550781 " clip-rule="nonzero"/></clipPath><clipPath id="13c5ade42b"><path d="M 529.289062 1888.640625 L 529.289062 1941.269531 C 506.558594 1941.269531 506.558594 1958.800781 483.828125 1958.800781 C 461.09375 1958.800781 461.09375 1941.269531 438.363281 1941.269531 C 415.632812 1941.269531 415.632812 1958.800781 392.902344 1958.800781 C 370.175781 1958.800781 370.175781 1941.269531 347.445312 1941.269531 C 324.714844 1941.269531 324.714844 1958.800781 301.992188 1958.800781 C 279.265625 1958.800781 279.265625 1941.269531 256.535156 1941.269531 L 256.535156 1888.640625 C 279.265625 1888.640625 279.265625 1906.171875 301.992188 1906.171875 C 324.714844 1906.171875 324.714844 1888.640625 347.445312 1888.640625 C 370.175781 1888.640625 370.175781 1906.171875 392.902344 1906.171875 C 415.632812 1906.171875 415.632812 1888.640625 438.363281 1888.640625 C 461.09375 1888.640625 461.09375 1906.171875 483.828125 1906.171875 C 506.558594 1906.171875 506.558594 1888.640625 529.289062 1888.640625 Z M 529.289062 1888.640625 " clip-rule="nonzero"/></clipPath><clipPath id="9974978666"><path d="M 0.535156 0.550781 L 273.421875 0.550781 L 273.421875 46.800781 L 0.535156 46.800781 Z M 0.535156 0.550781 " clip-rule="nonzero"/></clipPath><clipPath id="d579aac33d"><path d="M 273.289062 -23.359375 L 273.289062 29.269531 C 250.558594 29.269531 250.558594 46.800781 227.828125 46.800781 C 205.09375 46.800781 205.09375 29.269531 182.363281 29.269531 C 159.632812 29.269531 159.632812 46.800781 136.902344 46.800781 C 114.175781 46.800781 114.175781 29.269531 91.445312 29.269531 C 68.714844 29.269531 68.714844 46.800781 45.992188 46.800781 C 23.265625 46.800781 23.265625 29.269531 0.535156 29.269531 L 0.535156 -23.359375 C 23.265625 -23.359375 23.265625 -5.828125 45.992188 -5.828125 C 68.714844 -5.828125 68.714844 -23.359375 91.445312 -23.359375 C 114.175781 -23.359375 114.175781 -5.828125 136.902344 -5.828125 C 159.632812 -5.828125 159.632812 -23.359375 182.363281 -23.359375 C 205.09375 -23.359375 205.09375 -5.828125 227.828125 -5.828125 C 250.558594 -5.828125 250.558594 -23.359375 273.289062 -23.359375 Z M 273.289062 -23.359375 " clip-rule="nonzero"/></clipPath><clipPath id="f75fd6c027"><rect x="0" width="274" y="0" height="47"/></clipPath><clipPath id="d3f57dbacf"><path d="M 523.882812 1912.550781 L 785.894531 1912.550781 L 785.894531 1958.800781 L 523.882812 1958.800781 Z M 523.882812 1912.550781 " clip-rule="nonzero"/></clipPath><clipPath id="71c1588db3"><path d="M 785.824219 1888.640625 L 785.824219 1941.269531 C 763.996094 1941.269531 763.996094 1958.800781 742.167969 1958.800781 C 720.332031 1958.800781 720.332031 1941.269531 698.503906 1941.269531 C 676.675781 1941.269531 676.675781 1958.800781 654.84375 1958.800781 C 633.015625 1958.800781 633.015625 1941.269531 611.1875 1941.269531 C 589.359375 1941.269531 589.359375 1958.800781 567.539062 1958.800781 C 545.710938 1958.800781 545.710938 1941.269531 523.882812 1941.269531 L 523.882812 1888.640625 C 545.710938 1888.640625 545.710938 1906.171875 567.539062 1906.171875 C 589.359375 1906.171875 589.359375 1888.640625 611.1875 1888.640625 C 633.015625 1888.640625 633.015625 1906.171875 654.84375 1906.171875 C 676.675781 1906.171875 676.675781 1888.640625 698.503906 1888.640625 C 720.332031 1888.640625 720.332031 1906.171875 742.167969 1906.171875 C 763.996094 1906.171875 763.996094 1888.640625 785.824219 1888.640625 Z M 785.824219 1888.640625 " clip-rule="nonzero"/></clipPath><clipPath id="7b98dd9767"><path d="M 0.882812 0.550781 L 262.855469 0.550781 L 262.855469 46.800781 L 0.882812 46.800781 Z M 0.882812 0.550781 " clip-rule="nonzero"/></clipPath><clipPath id="a77813986e"><path d="M 262.824219 -23.359375 L 262.824219 29.269531 C 240.996094 29.269531 240.996094 46.800781 219.167969 46.800781 C 197.332031 46.800781 197.332031 29.269531 175.503906 29.269531 C 153.675781 29.269531 153.675781 46.800781 131.84375 46.800781 C 110.015625 46.800781 110.015625 29.269531 88.1875 29.269531 C 66.359375 29.269531 66.359375 46.800781 44.539062 46.800781 C 22.710938 46.800781 22.710938 29.269531 0.882812 29.269531 L 0.882812 -23.359375 C 22.710938 -23.359375 22.710938 -5.828125 44.539062 -5.828125 C 66.359375 -5.828125 66.359375 -23.359375 88.1875 -23.359375 C 110.015625 -23.359375 110.015625 -5.828125 131.84375 -5.828125 C 153.675781 -5.828125 153.675781 -23.359375 175.503906 -23.359375 C 197.332031 -23.359375 197.332031 -5.828125 219.167969 -5.828125 C 240.996094 -5.828125 240.996094 -23.359375 262.824219 -23.359375 Z M 262.824219 -23.359375 " clip-rule="nonzero"/></clipPath><clipPath id="bc0d5906bd"><rect x="0" width="263" y="0" height="47"/></clipPath><clipPath id="28ee4d5eb3"><path d="M 778.613281 1912.550781 L 1024 1912.550781 L 1024 1958.800781 L 778.613281 1958.800781 Z M 778.613281 1912.550781 " clip-rule="nonzero"/></clipPath><clipPath id="5f029aba86"><path d="M 1047.765625 1888.640625 L 1047.765625 1941.269531 C 1025.335938 1941.269531 1025.335938 1958.800781 1002.90625 1958.800781 C 980.46875 1958.800781 980.46875 1941.269531 958.039062 1941.269531 C 935.609375 1941.269531 935.609375 1958.800781 913.183594 1958.800781 C 890.753906 1958.800781 890.753906 1941.269531 868.324219 1941.269531 C 845.894531 1941.269531 845.894531 1958.800781 823.472656 1958.800781 C 801.042969 1958.800781 801.042969 1941.269531 778.613281 1941.269531 L 778.613281 1888.640625 C 801.042969 1888.640625 801.042969 1906.171875 823.472656 1906.171875 C 845.894531 1906.171875 845.894531 1888.640625 868.324219 1888.640625 C 890.753906 1888.640625 890.753906 1906.171875 913.183594 1906.171875 C 935.609375 1906.171875 935.609375 1888.640625 958.039062 1888.640625 C 980.46875 1888.640625 980.46875 1906.171875 1002.90625 1906.171875 C 1025.335938 1906.171875 1025.335938 1888.640625 1047.765625 1888.640625 Z M 1047.765625 1888.640625 " clip-rule="nonzero"/></clipPath><clipPath id="e0e214a2f6"><path d="M 0.613281 0.550781 L 246 0.550781 L 246 46.800781 L 0.613281 46.800781 Z M 0.613281 0.550781 " clip-rule="nonzero"/></clipPath><clipPath id="631b51d280"><path d="M 269.765625 -23.359375 L 269.765625 29.269531 C 247.335938 29.269531 247.335938 46.800781 224.90625 46.800781 C 202.46875 46.800781 202.46875 29.269531 180.039062 29.269531 C 157.609375 29.269531 157.609375 46.800781 135.183594 46.800781 C 112.753906 46.800781 112.753906 29.269531 90.324219 29.269531 C 67.894531 29.269531 67.894531 46.800781 45.472656 46.800781 C 23.042969 46.800781 23.042969 29.269531 0.613281 29.269531 L 0.613281 -23.359375 C 23.042969 -23.359375 23.042969 -5.828125 45.472656 -5.828125 C 67.894531 -5.828125 67.894531 -23.359375 90.324219 -23.359375 C 112.753906 -23.359375 112.753906 -5.828125 135.183594 -5.828125 C 157.609375 -5.828125 157.609375 -23.359375 180.039062 -23.359375 C 202.46875 -23.359375 202.46875 -5.828125 224.90625 -5.828125 C 247.335938 -5.828125 247.335938 -23.359375 269.765625 -23.359375 Z M 269.765625 -23.359375 " clip-rule="nonzero"/></clipPath><clipPath id="dede62dfde"><rect x="0" width="246" y="0" height="47"/></clipPath></defs><g clip-path="url(#870db982e0)"><path fill="#ffffff" d="M 0 0.230469 L 1024 0.230469 L 1024 575.953125 L 0 575.953125 Z M 0 0.230469 " fill-opacity="1" fill-rule="nonzero"/><path fill="#faf4ed" d="M 0 0.230469 L 1024 0.230469 L 1024 575.953125 L 0 575.953125 Z M 0 0.230469 " fill-opacity="1" fill-rule="nonzero"/></g><g clip-path="url(#4b58f8d9d5)"><path fill="#ffffff" d="M 0 575.953125 L 1024 575.953125 L 1024 1171.910156 L 0 1171.910156 Z M 0 575.953125 " fill-opacity="1" fill-rule="nonzero"/><path fill="#faf4ed" d="M 0 575.953125 L 1024 575.953125 L 1024 1171.910156 L 0 1171.910156 Z M 0 575.953125 " fill-opacity="1" fill-rule="nonzero"/></g><g clip-path="url(#f839c38e0b)"><path fill="#f2e9e1" d="M -36.890625 981.722656 L -7.046875 987.273438 C 22.800781 992.824219 82.488281 1003.929688 141.902344 1044.464844 C 201.453125 1084.859375 260.589844 1154.824219 320.140625 1184.390625 C 379.550781 1213.957031 439.242188 1203.40625 498.65625 1187.167969 C 558.207031 1170.925781 617.34375 1149.269531 676.894531 1130.667969 C 736.304688 1112.207031 795.996094 1096.9375 855.410156 1097.214844 C 914.960938 1097.355469 974.097656 1113.179688 1033.648438 1122.339844 C 1093.058594 1131.640625 1152.75 1134.417969 1182.59375 1135.804688 L 1212.441406 1137.191406 L 1212.441406 1355.132812 L 1182.59375 1355.132812 C 1152.75 1355.132812 1093.058594 1355.132812 1033.648438 1355.132812 C 974.097656 1355.132812 914.960938 1355.132812 855.410156 1355.132812 C 795.996094 1355.132812 736.304688 1355.132812 676.894531 1355.132812 C 617.34375 1355.132812 558.207031 1355.132812 498.65625 1355.132812 C 439.242188 1355.132812 379.550781 1355.132812 320.140625 1355.132812 C 260.589844 1355.132812 201.453125 1355.132812 141.902344 1355.132812 C 82.488281 1355.132812 22.800781 1355.132812 -7.046875 1355.132812 L -36.890625 1355.132812 Z M -36.890625 981.722656 " fill-opacity="1" fill-rule="nonzero"/></g><g clip-path="url(#d53994125a)"><path fill="#ffffff" d="M 0 1171.910156 L 1024 1171.910156 L 1024 1912.550781 L 0 1912.550781 Z M 0 1171.910156 " fill-opacity="1" fill-rule="nonzero"/><path fill="#faf4ed" d="M 0 1171.910156 L 1024 1171.910156 L 1024 1912.550781 L 0 1912.550781 Z M 0 1171.910156 " fill-opacity="1" fill-rule="nonzero"/></g><g clip-path="url(#c2fe0a73b5)"><path fill="#f2e9e1" d="M -7.441406 999.121094 L 20.179688 1004.257812 C 47.800781 1009.398438 103.039062 1019.675781 158.023438 1057.1875 C 213.132812 1094.570312 267.859375 1159.316406 322.96875 1186.679688 C 377.953125 1214.042969 433.191406 1204.277344 488.175781 1189.246094 C 543.285156 1174.21875 598.011719 1154.175781 653.125 1136.960938 C 708.105469 1119.878906 763.347656 1105.746094 818.328125 1106.003906 C 873.441406 1106.132812 928.167969 1120.777344 983.277344 1129.253906 C 1038.261719 1137.863281 1093.5 1140.429688 1121.121094 1141.714844 L 1148.742188 1143 L 1148.742188 1344.691406 L 1121.121094 1344.691406 C 1093.5 1344.691406 1038.261719 1344.691406 983.277344 1344.691406 C 928.167969 1344.691406 873.441406 1344.691406 818.328125 1344.691406 C 763.347656 1344.691406 708.105469 1344.691406 653.125 1344.691406 C 598.011719 1344.691406 543.285156 1344.691406 488.175781 1344.691406 C 433.191406 1344.691406 377.953125 1344.691406 322.96875 1344.691406 C 267.859375 1344.691406 213.132812 1344.691406 158.023438 1344.691406 C 103.039062 1344.691406 47.800781 1344.691406 20.179688 1344.691406 L -7.441406 1344.691406 Z M -7.441406 999.121094 " fill-opacity="1" fill-rule="nonzero"/></g><g clip-path="url(#d30e5157b7)"><g transform="matrix(1, 0, 0, 1, 0, 1280)"><g clip-path="url(#85703b4bc2)"><g clip-path="url(#8a52c82063)"><path fill="#f2e9e1" d="M -45.953125 0.902344 L 1116.273438 0.902344 L 1116.273438 647.707031 L -45.953125 647.707031 Z M -45.953125 0.902344 " fill-opacity="1" fill-rule="nonzero"/></g></g></g></g><g clip-path="url(#ff870770f0)"><path fill="#ffffff" d="M 0 1912.550781 L 1024 1912.550781 L 1024 2488.269531 L 0 2488.269531 Z M 0 1912.550781 " fill-opacity="1" fill-rule="nonzero"/><path fill="#faf4ed" d="M 0 1912.550781 L 1024 1912.550781 L 1024 2488.269531 L 0 2488.269531 Z M 0 1912.550781 " fill-opacity="1" fill-rule="nonzero"/></g><g clip-path="url(#018fcf7229)"><g clip-path="url(#f2c298d03e)"><g transform="matrix(1, 0, 0, 1, 0, 1912)"><g clip-path="url(#ab576d9fa8)"><g clip-path="url(#1fefed74c5)"><g clip-path="url(#055e95653b)"><path fill="#f2e9e1" d="M 0 -23.359375 L 262.015625 -23.359375 L 262.015625 46.800781 L 0 46.800781 Z M 0 -23.359375 " fill-opacity="1" fill-rule="nonzero"/></g></g></g></g></g></g><g clip-path="url(#8d3f48c3f3)"><g clip-path="url(#13c5ade42b)"><g transform="matrix(1, 0, 0, 1, 256, 1912)"><g clip-path="url(#f75fd6c027)"><g clip-path="url(#9974978666)"><g clip-path="url(#d579aac33d)"><path fill="#f2e9e1" d="M 0.535156 -23.359375 L 273.238281 -23.359375 L 273.238281 46.800781 L 0.535156 46.800781 Z M 0.535156 -23.359375 " fill-opacity="1" fill-rule="nonzero"/></g></g></g></g></g></g><g clip-path="url(#d3f57dbacf)"><g clip-path="url(#71c1588db3)"><g transform="matrix(1, 0, 0, 1, 523, 1912)"><g clip-path="url(#bc0d5906bd)"><g clip-path="url(#7b98dd9767)"><g clip-path="url(#a77813986e)"><path fill="#f2e9e1" d="M 0.882812 -23.359375 L 262.894531 -23.359375 L 262.894531 46.800781 L 0.882812 46.800781 Z M 0.882812 -23.359375 " fill-opacity="1" fill-rule="nonzero"/></g></g></g></g></g></g><g clip-path="url(#28ee4d5eb3)"><g clip-path="url(#5f029aba86)"><g transform="matrix(1, 0, 0, 1, 778, 1912)"><g clip-path="url(#dede62dfde)"><g clip-path="url(#e0e214a2f6)"><g clip-path="url(#631b51d280)"><path fill="#f2e9e1" d="M 0.613281 -23.359375 L 269.753906 -23.359375 L 269.753906 46.800781 L 0.613281 46.800781 Z M 0.613281 -23.359375 " fill-opacity="1" fill-rule="nonzero"/></g></g></g></g></g></g></svg>